# Blender v2.93.2 OBJ File: ''
# www.blender.org
mtllib floor.mtl
o Plane.001_Plane
v -75.371277 -0.607657 55.945679
v 74.628578 -0.607657 55.945679
v 74.628578 -0.607637 -59.054211
v -75.371277 -0.607637 -59.054211
vt 0.000000 0.000000
vt 1.000000 0.000000
vt 1.000000 1.000000
vt 0.000000 1.000000
vn 0.0000 1.0000 0.0000
usemtl Material.006
s off
f 1/1/1 2/2/1 3/3/1 4/4/1
o Plane.020_Plane.021
v -52.499950 0.150757 31.749975
v 52.499950 0.150757 31.749975
v 52.499950 0.150770 -53.249950
v -52.499950 0.150770 -53.249950
vt -25.066555 -25.066555
vt 26.066555 -25.066555
vt 26.066555 26.066555
vt -25.066555 26.066555
vn 0.0000 1.0000 0.0000
usemtl Material.007
s off
f 5/5/2 6/6/2 7/7/2 8/8/2
